<svg width="45" height="31" viewBox="0 0 45 31" fill="none" xmlns="http://www.w3.org/2000/svg">
<path fill-rule="evenodd" clip-rule="evenodd" d="M14.136 1.54867C14.0239 0.880816 13.4698 0.376124 12.7944 0.326808C12.119 0.277493 11.4975 0.696338 11.2896 1.34084L7.19682 14.0312H1.91663C1.10546 14.0312 0.447876 14.6888 0.447876 15.5C0.447876 16.3112 1.10546 16.9687 1.91663 16.9687H8.26637C8.90386 16.9687 9.46856 16.5575 9.66422 15.9508L12.2358 7.97719L15.8381 29.4513C15.9516 30.1281 16.5186 30.636 17.2038 30.6747C17.8889 30.7134 18.5095 30.2725 18.6985 29.6129L23.4564 13.0062L25.9627 21.7785C26.1242 22.3438 26.6073 22.7583 27.1906 22.8321C27.7739 22.9059 28.345 22.6247 28.6422 22.1174L31.6586 16.9687H33.9423C34.5816 19.2292 36.6599 20.8854 39.125 20.8854C42.0992 20.8854 44.5104 18.4743 44.5104 15.5C44.5104 12.5257 42.0992 10.1146 39.125 10.1146C36.6599 10.1146 34.5816 11.7708 33.9423 14.0312H30.8169C30.2955 14.0312 29.8132 14.3077 29.5496 14.7575L27.8437 17.6693L24.8705 7.26316C24.6904 6.63282 24.1144 6.19815 23.4588 6.19791C22.8033 6.19767 22.2269 6.63192 22.0463 7.26214L17.6617 22.5664L14.136 1.54867ZM36.677 15.5C36.677 14.148 37.773 13.0521 39.125 13.0521C40.4769 13.0521 41.5729 14.148 41.5729 15.5C41.5729 16.8519 40.4769 17.9479 39.125 17.9479C37.773 17.9479 36.677 16.8519 36.677 15.5Z" fill="black"/>
</svg>
